<svg width="108" height="45" viewBox="0 0 108 45" fill="none" xmlns="http://www.w3.org/2000/svg">
<g filter="url(#filter0_d_0_68)">
<path d="M12 29.432C10.536 29.432 9.228 29.096 8.076 28.424C6.924 27.728 6.012 26.732 5.34 25.436C4.692 24.14 4.368 22.604 4.368 20.828C4.368 19.052 4.728 17.54 5.448 16.292C6.168 15.044 7.152 14.096 8.4 13.448C9.648 12.8 11.064 12.476 12.648 12.476C13.656 12.476 14.616 12.632 15.528 12.944C16.464 13.256 17.244 13.736 17.868 14.384V15.968V0.595999H22.872V29H17.832V25.94L18.228 27.02C17.412 27.692 16.5 28.268 15.492 28.748C14.484 29.204 13.32 29.432 12 29.432ZM13.656 25.184C14.328 25.184 14.916 25.1 15.42 24.932C15.948 24.74 16.404 24.476 16.788 24.14C17.196 23.78 17.544 23.336 17.832 22.808V18.956C17.64 18.428 17.34 17.984 16.932 17.624C16.548 17.24 16.068 16.952 15.492 16.76C14.94 16.544 14.328 16.436 13.656 16.436C12.912 16.436 12.216 16.628 11.568 17.012C10.944 17.372 10.44 17.876 10.056 18.524C9.672 19.172 9.48 19.916 9.48 20.756C9.48 21.596 9.672 22.352 10.056 23.024C10.44 23.696 10.944 24.224 11.568 24.608C12.216 24.992 12.912 25.184 13.656 25.184Z" fill="#FEDB62"/>
<path d="M26.8328 20.936C26.8328 19.328 27.2048 17.888 27.9488 16.616C28.7168 15.344 29.7848 14.348 31.1528 13.628C32.5208 12.884 34.0928 12.512 35.8688 12.512C37.6688 12.512 39.2288 12.884 40.5488 13.628C41.8688 14.348 42.8768 15.344 43.5728 16.616C44.2928 17.888 44.6528 19.328 44.6528 20.936C44.6528 22.544 44.2928 23.996 43.5728 25.292C42.8768 26.564 41.8688 27.572 40.5488 28.316C39.2288 29.06 37.6448 29.432 35.7968 29.432C34.0688 29.432 32.5208 29.096 31.1528 28.424C29.8088 27.752 28.7528 26.78 27.9848 25.508C27.2168 24.236 26.8328 22.712 26.8328 20.936ZM31.9088 20.972C31.9088 21.788 32.0768 22.532 32.4128 23.204C32.7488 23.852 33.2048 24.368 33.7808 24.752C34.3568 25.136 35.0048 25.328 35.7248 25.328C36.5168 25.328 37.2008 25.136 37.7768 24.752C38.3528 24.368 38.7968 23.852 39.1088 23.204C39.4208 22.532 39.5768 21.788 39.5768 20.972C39.5768 20.132 39.4208 19.388 39.1088 18.74C38.7968 18.092 38.3528 17.576 37.7768 17.192C37.2008 16.808 36.5168 16.616 35.7248 16.616C35.0048 16.616 34.3568 16.808 33.7808 17.192C33.2048 17.576 32.7488 18.092 32.4128 18.74C32.0768 19.388 31.9088 20.132 31.9088 20.972ZM48.6233 0.595999H53.6633V29H48.6233V0.595999ZM69.1857 29.432C67.8657 29.432 66.7497 29.216 65.8377 28.784C64.9497 28.328 64.1697 27.74 63.4977 27.02L63.8937 25.94V29H58.8537V0.595999H63.8577V15.968V14.348C64.4817 13.82 65.3097 13.376 66.3417 13.016C67.3737 12.656 68.5497 12.476 69.8697 12.476C71.2377 12.476 72.4857 12.8 73.6137 13.448C74.7417 14.096 75.6417 15.044 76.3137 16.292C77.0097 17.516 77.3577 19.016 77.3577 20.792C77.3577 22.568 76.9737 24.104 76.2057 25.4C75.4617 26.696 74.4657 27.692 73.2177 28.388C71.9697 29.084 70.6257 29.432 69.1857 29.432ZM68.0697 25.184C68.8137 25.184 69.4977 24.992 70.1217 24.608C70.7697 24.224 71.2857 23.696 71.6697 23.024C72.0537 22.352 72.2457 21.596 72.2457 20.756C72.2457 19.916 72.0537 19.172 71.6697 18.524C71.2857 17.876 70.7697 17.372 70.1217 17.012C69.4977 16.628 68.8137 16.436 68.0697 16.436C67.4217 16.436 66.8097 16.544 66.2337 16.76C65.6817 16.952 65.2017 17.24 64.7937 17.624C64.4097 17.984 64.1097 18.428 63.8937 18.956V22.808C64.1817 23.336 64.5177 23.78 64.9017 24.14C65.3097 24.476 65.7777 24.74 66.3057 24.932C66.8337 25.1 67.4217 25.184 68.0697 25.184ZM82.5786 36.56L93.0546 13.268H97.5906L87.4386 36.56H82.5786ZM86.7906 29.072L79.0866 13.268H84.7386L90.6786 26.552L86.7906 29.072ZM98.497 26.408C98.497 25.664 98.761 25.04 99.289 24.536C99.841 24.032 100.441 23.78 101.089 23.78C101.689 23.78 102.253 24.032 102.781 24.536C103.333 25.04 103.609 25.664 103.609 26.408C103.609 27.2 103.333 27.836 102.781 28.316C102.253 28.772 101.689 29 101.089 29C100.441 29 99.841 28.772 99.289 28.316C98.761 27.836 98.497 27.2 98.497 26.408Z" fill="white"/>
</g>
<defs>
<filter id="filter0_d_0_68" x="0.367981" y="0.595947" width="107.241" height="43.9641" filterUnits="userSpaceOnUse" color-interpolation-filters="sRGB">
<feFlood flood-opacity="0" result="BackgroundImageFix"/>
<feColorMatrix in="SourceAlpha" type="matrix" values="0 0 0 0 0 0 0 0 0 0 0 0 0 0 0 0 0 0 127 0" result="hardAlpha"/>
<feOffset dy="4"/>
<feGaussianBlur stdDeviation="2"/>
<feComposite in2="hardAlpha" operator="out"/>
<feColorMatrix type="matrix" values="0 0 0 0 0 0 0 0 0 0 0 0 0 0 0 0 0 0 0.25 0"/>
<feBlend mode="normal" in2="BackgroundImageFix" result="effect1_dropShadow_0_68"/>
<feBlend mode="normal" in="SourceGraphic" in2="effect1_dropShadow_0_68" result="shape"/>
</filter>
</defs>
</svg>
